<mxfile host="app.diagrams.net" modified="2021-10-21T18:05:45.076Z" agent="5.0 (Macintosh; Intel Mac OS X 10_15_7) AppleWebKit/537.36 (KHTML, like Gecko) Chrome/94.0.4606.81 Safari/537.36" etag="IAbWE_xWmbPm3NVCwJOX" version="15.5.8" type="github">
  <diagram name="Page-1" id="c37626ed-c26b-45fb-9056-f9ebc6bb27b6">
    <mxGraphModel dx="1426" dy="737" grid="1" gridSize="10" guides="1" tooltips="1" connect="1" arrows="1" fold="1" page="1" pageScale="1" pageWidth="1100" pageHeight="850" background="none" math="0" shadow="0">
      <root>
        <mxCell id="0" />
        <mxCell id="1" parent="0" />
        <mxCell id="nfOajHGnPPYlin3Qy83G-8" value="" style="whiteSpace=wrap;html=1;aspect=fixed;fontSize=18;fillColor=#f5f5f5;fontColor=#333333;strokeColor=#666666;" vertex="1" parent="1">
          <mxGeometry x="70" y="230" width="250" height="250" as="geometry" />
        </mxCell>
        <mxCell id="nfOajHGnPPYlin3Qy83G-5" value="" style="pointerEvents=1;shadow=0;dashed=0;html=1;strokeColor=none;fillColor=#4495D1;labelPosition=center;verticalLabelPosition=bottom;verticalAlign=top;align=center;outlineConnect=0;shape=mxgraph.veeam.cluster;" vertex="1" parent="1">
          <mxGeometry x="115" y="280" width="160" height="90" as="geometry" />
        </mxCell>
        <mxCell id="nfOajHGnPPYlin3Qy83G-7" value="" style="edgeStyle=orthogonalEdgeStyle;rounded=0;orthogonalLoop=1;jettySize=auto;html=1;" edge="1" parent="1" source="nfOajHGnPPYlin3Qy83G-6" target="nfOajHGnPPYlin3Qy83G-5">
          <mxGeometry relative="1" as="geometry" />
        </mxCell>
        <mxCell id="nfOajHGnPPYlin3Qy83G-6" value="&lt;font style=&quot;font-size: 18px&quot;&gt;Worker Nodes&lt;/font&gt;" style="text;html=1;align=center;verticalAlign=middle;resizable=0;points=[];autosize=1;strokeColor=none;fillColor=none;" vertex="1" parent="1">
          <mxGeometry x="130" y="425" width="130" height="20" as="geometry" />
        </mxCell>
        <mxCell id="nfOajHGnPPYlin3Qy83G-9" value="Vlan PRD" style="rounded=1;whiteSpace=wrap;html=1;fontSize=18;fillColor=#d5e8d4;strokeColor=#82b366;" vertex="1" parent="1">
          <mxGeometry x="50" y="210" width="100" height="40" as="geometry" />
        </mxCell>
        <mxCell id="nfOajHGnPPYlin3Qy83G-12" value="" style="shape=image;html=1;verticalAlign=top;verticalLabelPosition=bottom;labelBackgroundColor=#ffffff;imageAspect=0;aspect=fixed;image=https://cdn2.iconfinder.com/data/icons/social-icons-circular-color/512/github-128.png;fontSize=18;" vertex="1" parent="1">
          <mxGeometry x="170" y="10" width="98" height="98" as="geometry" />
        </mxCell>
        <mxCell id="nfOajHGnPPYlin3Qy83G-15" value="" style="edgeStyle=orthogonalEdgeStyle;rounded=0;orthogonalLoop=1;jettySize=auto;html=1;fontSize=18;" edge="1" parent="1" source="nfOajHGnPPYlin3Qy83G-13" target="nfOajHGnPPYlin3Qy83G-12">
          <mxGeometry relative="1" as="geometry" />
        </mxCell>
        <mxCell id="nfOajHGnPPYlin3Qy83G-34" value="" style="edgeStyle=orthogonalEdgeStyle;rounded=0;orthogonalLoop=1;jettySize=auto;html=1;fontSize=18;" edge="1" parent="1" source="nfOajHGnPPYlin3Qy83G-13" target="nfOajHGnPPYlin3Qy83G-12">
          <mxGeometry relative="1" as="geometry" />
        </mxCell>
        <mxCell id="nfOajHGnPPYlin3Qy83G-13" value="GitHub BCP" style="text;html=1;align=center;verticalAlign=middle;resizable=0;points=[];autosize=1;strokeColor=none;fillColor=none;fontSize=18;" vertex="1" parent="1">
          <mxGeometry x="300" y="44" width="110" height="30" as="geometry" />
        </mxCell>
        <mxCell id="nfOajHGnPPYlin3Qy83G-18" value="" style="endArrow=classic;startArrow=classic;html=1;rounded=0;fontSize=18;entryX=0.25;entryY=1;entryDx=0;entryDy=0;exitX=0.5;exitY=0;exitDx=0;exitDy=0;" edge="1" parent="1" source="nfOajHGnPPYlin3Qy83G-8" target="nfOajHGnPPYlin3Qy83G-12">
          <mxGeometry width="50" height="50" relative="1" as="geometry">
            <mxPoint x="345" y="90" as="sourcePoint" />
            <mxPoint x="570" y="390" as="targetPoint" />
          </mxGeometry>
        </mxCell>
        <mxCell id="nfOajHGnPPYlin3Qy83G-24" value="" style="aspect=fixed;perimeter=ellipsePerimeter;html=1;align=center;shadow=0;dashed=0;spacingTop=3;image;image=img/lib/active_directory/generic_server.svg;fontSize=18;" vertex="1" parent="1">
          <mxGeometry x="510" y="250" width="48" height="85.71" as="geometry" />
        </mxCell>
        <mxCell id="nfOajHGnPPYlin3Qy83G-25" value="" style="aspect=fixed;perimeter=ellipsePerimeter;html=1;align=center;shadow=0;dashed=0;spacingTop=3;image;image=img/lib/active_directory/generic_server.svg;fontSize=18;" vertex="1" parent="1">
          <mxGeometry x="510" y="382.00000000000006" width="48" height="85.71" as="geometry" />
        </mxCell>
        <mxCell id="nfOajHGnPPYlin3Qy83G-26" value="" style="endArrow=none;html=1;rounded=0;fontSize=18;entryX=0;entryY=0.5;entryDx=0;entryDy=0;" edge="1" parent="1" target="nfOajHGnPPYlin3Qy83G-24">
          <mxGeometry width="50" height="50" relative="1" as="geometry">
            <mxPoint x="440" y="440" as="sourcePoint" />
            <mxPoint x="500" y="290" as="targetPoint" />
            <Array as="points">
              <mxPoint x="440" y="293" />
            </Array>
          </mxGeometry>
        </mxCell>
        <mxCell id="nfOajHGnPPYlin3Qy83G-28" value="" style="endArrow=none;html=1;rounded=0;fontSize=18;exitX=1;exitY=0.5;exitDx=0;exitDy=0;" edge="1" parent="1" source="nfOajHGnPPYlin3Qy83G-8">
          <mxGeometry width="50" height="50" relative="1" as="geometry">
            <mxPoint x="520" y="390" as="sourcePoint" />
            <mxPoint x="440" y="355" as="targetPoint" />
          </mxGeometry>
        </mxCell>
        <mxCell id="nfOajHGnPPYlin3Qy83G-30" value="" style="endArrow=none;html=1;rounded=0;fontSize=18;entryX=-0.09;entryY=0.677;entryDx=0;entryDy=0;entryPerimeter=0;" edge="1" parent="1" target="nfOajHGnPPYlin3Qy83G-25">
          <mxGeometry width="50" height="50" relative="1" as="geometry">
            <mxPoint x="440" y="440" as="sourcePoint" />
            <mxPoint x="570" y="340" as="targetPoint" />
          </mxGeometry>
        </mxCell>
        <mxCell id="nfOajHGnPPYlin3Qy83G-33" value="443" style="text;html=1;align=center;verticalAlign=middle;resizable=0;points=[];autosize=1;strokeColor=none;fillColor=none;fontSize=18;" vertex="1" parent="1">
          <mxGeometry x="150" y="130" width="50" height="30" as="geometry" />
        </mxCell>
        <mxCell id="nfOajHGnPPYlin3Qy83G-36" value="" style="outlineConnect=0;dashed=0;verticalLabelPosition=bottom;verticalAlign=top;align=center;html=1;shape=mxgraph.aws3.vault;fillColor=#E05243;gradientColor=none;fontSize=18;" vertex="1" parent="1">
          <mxGeometry x="170" y="640" width="54" height="75" as="geometry" />
        </mxCell>
        <mxCell id="nfOajHGnPPYlin3Qy83G-37" value="" style="endArrow=classic;startArrow=classic;html=1;rounded=0;fontSize=18;entryX=0.5;entryY=1;entryDx=0;entryDy=0;" edge="1" parent="1" source="nfOajHGnPPYlin3Qy83G-36" target="nfOajHGnPPYlin3Qy83G-8">
          <mxGeometry width="50" height="50" relative="1" as="geometry">
            <mxPoint x="520" y="520" as="sourcePoint" />
            <mxPoint x="570" y="470" as="targetPoint" />
          </mxGeometry>
        </mxCell>
        <mxCell id="nfOajHGnPPYlin3Qy83G-38" value="443" style="text;html=1;align=center;verticalAlign=middle;resizable=0;points=[];autosize=1;strokeColor=none;fillColor=none;fontSize=18;" vertex="1" parent="1">
          <mxGeometry x="194" y="545" width="50" height="30" as="geometry" />
        </mxCell>
        <mxCell id="nfOajHGnPPYlin3Qy83G-39" value="&lt;br&gt;&lt;br&gt;&lt;br&gt;&lt;br&gt;&lt;br&gt;&lt;br&gt;&lt;table border=&quot;0&quot; cellpadding=&quot;0&quot; cellspacing=&quot;0&quot; width=&quot;239&quot; style=&quot;border-collapse: collapse ; width: 179pt&quot;&gt;&lt;colgroup&gt;&lt;col width=&quot;239&quot; style=&quot;width: 179pt&quot;&gt;&lt;/colgroup&gt;&lt;tbody&gt;&lt;tr style=&quot;height: 16pt&quot;&gt;&lt;td height=&quot;21&quot; class=&quot;xl65&quot; width=&quot;239&quot; style=&quot;padding-top: 1px ; padding-right: 1px ; padding-left: 1px ; font-size: 10pt ; font-family: &amp;#34;calibri&amp;#34; , sans-serif ; vertical-align: bottom ; border: 0.5pt solid ; text-align: center ; height: 16pt ; width: 179pt&quot;&gt;JUMPHOST&lt;br&gt;&lt;/td&gt;&lt;/tr&gt;&lt;/tbody&gt;&lt;/table&gt;" style="text;whiteSpace=wrap;html=1;fontSize=18;" vertex="1" parent="1">
          <mxGeometry x="420" y="90" width="120" height="190" as="geometry" />
        </mxCell>
        <mxCell id="nfOajHGnPPYlin3Qy83G-40" value="&lt;br&gt;&lt;br&gt;&lt;br&gt;&lt;br&gt;&lt;br&gt;&lt;br&gt;&lt;table border=&quot;0&quot; cellpadding=&quot;0&quot; cellspacing=&quot;0&quot; width=&quot;239&quot; style=&quot;border-collapse: collapse ; width: 179pt&quot;&gt;&lt;colgroup&gt;&lt;col width=&quot;239&quot; style=&quot;width: 179pt&quot;&gt;&lt;/colgroup&gt;&lt;tbody&gt;&lt;tr style=&quot;height: 16pt&quot;&gt;&lt;td height=&quot;21&quot; class=&quot;xl65&quot; width=&quot;239&quot; style=&quot;padding-top: 1px ; padding-right: 1px ; padding-left: 1px ; font-size: 10pt ; font-family: &amp;#34;calibri&amp;#34; , sans-serif ; vertical-align: bottom ; border: 0.5pt solid ; text-align: center ; height: 16pt ; width: 179pt&quot;&gt;JUMPHOST&lt;br&gt;&lt;/td&gt;&lt;/tr&gt;&lt;/tbody&gt;&lt;/table&gt;" style="text;whiteSpace=wrap;html=1;fontSize=18;" vertex="1" parent="1">
          <mxGeometry x="420" y="330" width="80" height="190" as="geometry" />
        </mxCell>
        <mxCell id="nfOajHGnPPYlin3Qy83G-41" value="" style="sketch=0;aspect=fixed;pointerEvents=1;shadow=0;dashed=0;html=1;strokeColor=none;labelPosition=center;verticalLabelPosition=bottom;verticalAlign=top;align=center;fillColor=#00188D;shape=mxgraph.mscae.enterprise.firewall;fontSize=18;" vertex="1" parent="1">
          <mxGeometry x="300" y="333" width="50" height="44" as="geometry" />
        </mxCell>
        <mxCell id="nfOajHGnPPYlin3Qy83G-44" value="" style="shape=partialRectangle;whiteSpace=wrap;html=1;bottom=1;right=1;left=1;top=0;fillColor=none;routingCenterX=-0.5;fontSize=18;rotation=-90;" vertex="1" parent="1">
          <mxGeometry x="521.88" y="325.63" width="145" height="73.75" as="geometry" />
        </mxCell>
        <mxCell id="nfOajHGnPPYlin3Qy83G-45" value="" style="line;strokeWidth=2;html=1;fontSize=18;" vertex="1" parent="1">
          <mxGeometry x="630" y="357.51" width="110" height="10" as="geometry" />
        </mxCell>
        <mxCell id="nfOajHGnPPYlin3Qy83G-46" value="" style="shape=partialRectangle;whiteSpace=wrap;html=1;bottom=1;right=1;left=1;top=0;fillColor=none;routingCenterX=-0.5;fontSize=18;rotation=90;" vertex="1" parent="1">
          <mxGeometry x="515" y="345" width="510" height="60" as="geometry" />
        </mxCell>
        <mxCell id="nfOajHGnPPYlin3Qy83G-47" value="" style="sketch=0;aspect=fixed;pointerEvents=1;shadow=0;dashed=0;html=1;strokeColor=none;labelPosition=center;verticalLabelPosition=bottom;verticalAlign=top;align=center;fillColor=#00188D;shape=mxgraph.mscae.enterprise.windows_server;fontSize=18;" vertex="1" parent="1">
          <mxGeometry x="845.99" y="44" width="101.4" height="130" as="geometry" />
        </mxCell>
        <mxCell id="nfOajHGnPPYlin3Qy83G-48" value="TCP&lt;br&gt;5985 / 5986" style="text;html=1;align=center;verticalAlign=middle;resizable=0;points=[];autosize=1;strokeColor=none;fillColor=none;fontSize=18;" vertex="1" parent="1">
          <mxGeometry x="702" y="74" width="110" height="50" as="geometry" />
        </mxCell>
        <mxCell id="nfOajHGnPPYlin3Qy83G-50" value="" style="sketch=0;aspect=fixed;html=1;points=[];align=center;image;fontSize=12;image=img/lib/mscae/VM_Linux.svg;" vertex="1" parent="1">
          <mxGeometry x="830" y="308.51" width="117.39" height="108" as="geometry" />
        </mxCell>
        <mxCell id="nfOajHGnPPYlin3Qy83G-53" value="TCP&lt;br&gt;22" style="text;html=1;align=center;verticalAlign=middle;resizable=0;points=[];autosize=1;strokeColor=none;fillColor=none;fontSize=18;" vertex="1" parent="1">
          <mxGeometry x="745" y="307.51" width="50" height="50" as="geometry" />
        </mxCell>
        <mxCell id="nfOajHGnPPYlin3Qy83G-54" value="" style="aspect=fixed;perimeter=ellipsePerimeter;html=1;align=center;shadow=0;dashed=0;spacingTop=3;image;image=img/lib/active_directory/generic_server.svg;fontSize=18;" vertex="1" parent="1">
          <mxGeometry x="850" y="540" width="97.39" height="173.91" as="geometry" />
        </mxCell>
        <mxCell id="nfOajHGnPPYlin3Qy83G-55" value="TCP&lt;br&gt;22" style="text;html=1;align=center;verticalAlign=middle;resizable=0;points=[];autosize=1;strokeColor=none;fillColor=none;fontSize=18;" vertex="1" parent="1">
          <mxGeometry x="745" y="640" width="50" height="50" as="geometry" />
        </mxCell>
        <mxCell id="nfOajHGnPPYlin3Qy83G-56" value="TCP&lt;br&gt;22" style="text;html=1;align=center;verticalAlign=middle;resizable=0;points=[];autosize=1;strokeColor=none;fillColor=none;fontSize=18;" vertex="1" parent="1">
          <mxGeometry x="370" y="307.51" width="50" height="50" as="geometry" />
        </mxCell>
        <mxCell id="nfOajHGnPPYlin3Qy83G-57" value="" style="line;strokeWidth=2;html=1;fontSize=18;" vertex="1" parent="1">
          <mxGeometry x="735.99" y="357.51" width="64.01" height="10" as="geometry" />
        </mxCell>
      </root>
    </mxGraphModel>
  </diagram>
</mxfile>
